# xmcd
#
# Track frame offsets:
#	150
#	18702
#	33300
#	46050
#	54525
#	74595
#	103950
#	118470
#	137156
#	152700
#	165772
#	186900
#
# Disc length: 2784 seconds
#
# Revision: 6
# Processed by: cddbd v1.5.2PL0 Copyright (c) Steve Scherf et al.
# Submitted via: EasyCDDAExtractor 10.5.1.1
#
DISCID=aa0ade0c
DTITLE=Various Artist - 'Tis The Season
DYEAR=2000
DGENRE=Christmas
TTITLE0=Vince Gill and Olivia Newton-John - (There's No Place Like) Home For The
TTITLE0=Holidays
TTITLE1=Vince Gill - Sleigh Ride
TTITLE2=Olivia Newton-John - Silver Bells
TTITLE3=Bradford Singers, The - Deck The Hall
TTITLE4=Vince Gill - The First Noel
TTITLE5=Olivia Newton-John - Ave Maria
TTITLE6=Vince Gill - It Came Upon A Midnight Clear
TTITLE7=Vince Gill and Olivia Newton-John - Away In A Manger
TTITLE8=Bradford Singers, The - O Little Town Of Bethlehem
TTITLE9=Olivia Newton-John - What Child Is This?
TTITLE10=Vince Gill - Silent Night
TTITLE11=Olivia Newton-John - O Holy Night
EXTD=YEAR: 2000
EXTT0=
EXTT1=
EXTT2=
EXTT3=
EXTT4=
EXTT5=
EXTT6=
EXTT7=
EXTT8=
EXTT9=
EXTT10=
EXTT11=
PLAYORDER=
